HIERARCHY
ROOT RootJoint
{
    OFFSET   0.000000   0.000000   0.000000
    CHANNELS 6 Xposition Yposition Zposition Xrotation Yrotation Zrotation
    JOINT pelvis_lowerback
    {
        OFFSET   0.000000   0.093605   0.000000
        CHANNELS 3 Xrotation Yrotation Zrotation
        JOINT lowerback_torso
        {
            OFFSET   0.000000   0.100000   0.000000
            CHANNELS 3 Xrotation Yrotation Zrotation
            JOINT torso_head
            {
                OFFSET   0.000000   0.282350   0.000000
                CHANNELS 3 Xrotation Yrotation Zrotation
                End Site
                {
                    OFFSET   0.000000   0.192650   0.000000
                }
            }
            JOINT rTorso_Clavicle
            {
                OFFSET  -0.001000   0.157500   0.000000
                CHANNELS 3 Xrotation Yrotation Zrotation
                JOINT rShoulder
                {
                    OFFSET  -0.117647   0.000000   0.000000
                    CHANNELS 3 Xrotation Yrotation Zrotation
                    JOINT rElbow
                    {
                        OFFSET  -0.245000   0.000000   0.000000
                        CHANNELS 3 Xrotation Yrotation Zrotation
                        JOINT rWrist
                        {
                            OFFSET  -0.240000   0.000000   0.000000
                            CHANNELS 3 Xrotation Yrotation Zrotation
                            End Site
                            {
                                OFFSET  -0.116353  -0.002500   0.000000
                            }
                        }
                    }
                }
            }
            JOINT lTorso_Clavicle
            {
                OFFSET   0.001000   0.157500   0.000000
                CHANNELS 3 Xrotation Yrotation Zrotation
                JOINT lShoulder
                {
                    OFFSET   0.117647   0.000000   0.000000
                    CHANNELS 3 Xrotation Yrotation Zrotation
                    JOINT lElbow
                    {
                        OFFSET   0.245000   0.000000   0.000000
                        CHANNELS 3 Xrotation Yrotation Zrotation
                        JOINT lWrist
                        {
                            OFFSET   0.240000   0.000000   0.000000
                            CHANNELS 3 Xrotation Yrotation Zrotation
                            End Site
                            {
                                OFFSET   0.116353  -0.002500   0.000000
                            }
                        }
                    }
                }
            }
        }
    }
    JOINT rHip
    {
        OFFSET  -0.100000  -0.051395   0.000000
        CHANNELS 3 Xrotation Yrotation Zrotation
        JOINT rKnee
        {
            OFFSET   0.000000  -0.410000   0.000000
            CHANNELS 3 Xrotation Yrotation Zrotation
            JOINT rAnkle
            {
                OFFSET   0.000000  -0.390000   0.000000
                CHANNELS 3 Xrotation Yrotation Zrotation
                JOINT rToeJoint
                {
                    OFFSET   0.000000  -0.050000   0.130000
                    CHANNELS 3 Xrotation Yrotation Zrotation
                    End Site
                    {
                        OFFSET  -0.010000   0.002000   0.060000
                    }
                }
            }
        }
    }
    JOINT lHip
    {
        OFFSET   0.100000  -0.051395   0.000000
        CHANNELS 3 Xrotation Yrotation Zrotation
        JOINT lKnee
        {
            OFFSET   0.000000  -0.410000   0.000000
            CHANNELS 3 Xrotation Yrotation Zrotation
            JOINT lAnkle
            {
                OFFSET   0.000000  -0.390000   0.000000
                CHANNELS 3 Xrotation Yrotation Zrotation
                JOINT lToeJoint
                {
                    OFFSET   0.000000  -0.050000   0.130000
                    CHANNELS 3 Xrotation Yrotation Zrotation
                    End Site
                    {
                        OFFSET   0.010000   0.002000   0.060000
                    }
                }
            }
        }
    }
}
MOTION
Frames: 7
Frame Time:   0.008333
 -2.769500   0.902997   5.827280  -8.757913  -9.723258  -0.292972  10.126901  -1.659956  -1.806068   7.537623  -0.678081   1.313571   3.659295   0.329746  -0.940895   2.294494   5.393813   6.464703   8.556211  13.270843  47.357416   0.000002  16.503808  -0.000099  10.312903   2.616727   2.762012   0.581586  -6.564310  -3.711570   5.068097 -19.415919 -45.327557  -0.000873 -23.994272   0.000268   9.800282  -3.822572  -3.576066 -10.862981   0.170163  -5.739571  16.514038   0.000021  -0.000608  -5.253843  -4.950785   3.406123  -1.209961  -0.000092   0.000449  16.548683   0.543152  -0.622947   8.439807  -0.000622   0.000564 -14.868165  -0.002825   1.616353  -2.401662  -0.000124  -0.000244
 -2.772552   0.902650   5.831254  -8.735980  -9.506799  -0.284664  10.065460  -1.706766  -1.739177   7.529393  -0.698477   1.331710   3.698826   0.277327  -0.890958   2.276845   5.363479   6.463313   8.585603  13.285882  47.328728   0.000001  16.506517  -0.000081  10.365464   2.605386   2.730398   0.625641  -6.455997  -3.830346   5.321636 -19.351170 -45.478503  -0.001186 -23.801997   0.000389   9.789314  -3.858901  -3.606088 -10.757542   0.194751  -5.592442  16.774212  -0.000244   0.000177  -5.211425  -4.861496   3.307331  -1.202334  -0.000075   0.000382  16.650856   0.432392  -0.387838   8.740602  -0.000920   0.000781 -14.981357  -0.047145   1.378082  -2.876936  -0.000298  -0.000314
 -2.775685   0.902284   5.835339  -8.721850  -9.302056  -0.267593   9.993641  -1.747152  -1.680335   7.525730  -0.714254   1.347223   3.735357   0.226026  -0.840192   2.264968   5.326589   6.462725   8.616551  13.296389  47.303337   0.000001  16.508303  -0.000066  10.415041   2.594373   2.694091   0.692717  -6.334099  -3.953269   5.579375 -19.276003 -45.630352  -0.001445 -23.610259   0.000507   9.781765  -3.840484  -3.670145 -10.624008   0.214962  -5.431837  17.055980  -0.000531   0.000841  -5.169863  -4.777435   3.215351  -1.193389  -0.000063   0.000331  16.754486   0.329858  -0.162173   9.069448  -0.001204   0.000990 -15.082243  -0.088494   1.153000  -3.406037  -0.000386  -0.000397
 -2.778831   0.902314   5.839285  -8.723885  -9.093586  -0.349511   9.963267  -1.781827  -1.537168   7.538522  -0.720645   1.395632   3.765429   0.178140  -0.789222   2.244165   5.302586   6.467894   8.640162  13.308493  47.267174   0.000001  16.508921  -0.000054  10.462305   2.573568   2.631304   0.762197  -6.223266  -4.104745   5.821368 -19.207011 -45.789743  -0.001693 -23.427029   0.000548   9.777049  -3.790921  -3.744140 -10.545316   0.230744  -5.170281  17.517766  -0.000976   0.001870  -5.003962  -4.696974   3.152904  -1.178207  -0.000058   0.000307  16.846819   0.247665   0.160369   9.417574  -0.001466   0.001169 -15.068954  -0.114336   0.973151  -4.102303  -0.000211  -0.000560
 -2.781999   0.902273   5.843172  -8.711529  -8.876525  -0.464780   9.924463  -1.814467  -1.380007   7.549143  -0.722945   1.461940   3.796359   0.133325  -0.735719   2.228323   5.275434   6.459199   8.664076  13.319407  47.237623   0.000001  16.511529  -0.000045  10.507122   2.566089   2.586528   0.836412  -6.110720  -4.234597   6.053246 -19.141151 -45.946163  -0.001824 -23.256990   0.000579   9.771162  -3.747755  -3.853646 -10.467361   0.228319  -4.868830  17.950434  -0.001306   0.002623  -4.877548  -4.626170   3.096201  -1.162185  -0.000056   0.000290  16.924563   0.157126   0.522912   9.801933  -0.001740   0.001322 -14.850449  -0.159314   0.861042  -6.021541   0.001209  -0.000475
 -2.785126   0.902347   5.847053  -8.695272  -8.679143  -0.523193   9.882557  -1.836573  -1.278480   7.561795  -0.719451   1.508225   3.825257   0.091512  -0.686446   2.215415   5.249067   6.464554   8.686842  13.329544  47.215834   0.000001  16.513134  -0.000038  10.550207   2.556543   2.545473   0.910764  -5.998656  -4.356644   6.275943 -19.073733 -46.087019  -0.001891 -23.094250   0.000618   9.767267  -3.691192  -3.960322 -10.369728   0.229523  -4.627043  18.333062  -0.001498   0.003015  -4.775946  -4.559002   3.038173  -1.147668  -0.000053   0.000269  17.005964   0.072394   0.821861  10.122596  -0.001849   0.001390 -14.816166  -0.196202   0.715633  -6.551356   0.001183  -0.000468
 -2.788227   0.902441   5.850905  -8.667498  -8.485993  -0.565891   9.837092  -1.853697  -1.186169   7.569882  -0.713336   1.545122   3.851725   0.052514  -0.642347   2.205383   5.222262   6.466741   8.709518  13.338144  47.196846   0.000001  16.514634  -0.000032  10.591380   2.548746   2.513170   0.983841  -5.889447  -4.468344   6.486719 -19.008968 -46.219902  -0.001894 -22.941574   0.000650   9.764305  -3.631684  -4.068500 -10.268889   0.229363  -4.399663  18.681829  -0.001606   0.003229  -4.686825  -4.496531   2.982619  -1.136028  -0.000049   0.000244  17.074389  -0.006366   1.103068  10.433134  -0.001908   0.001450 -14.736964  -0.234276   0.588701  -7.166962   0.001280  -0.000499
